<?xml version="1.0" encoding="utf-8"?>
<!-- Generator: Adobe Illustrator 16.0.0, SVG Export Plug-In . SVG Version: 6.00 Build 0)  -->
<!DOCTYPE svg PUBLIC "-//W3C//DTD SVG 1.1//EN" "http://www.w3.org/Graphics/SVG/1.1/DTD/svg11.dtd">
<svg version="1.1" id="Layer_1" xmlns="http://www.w3.org/2000/svg" xmlns:xlink="http://www.w3.org/1999/xlink" x="0px" y="0px"
	 width="579.452px" height="179.397px" viewBox="12.137 35.641 579.452 179.397"
	 enable-background="new 12.137 35.641 579.452 179.397" xml:space="preserve">
<g enable-background="new    ">
	<path fill="#414042" d="M24.681,195.929V175.46h5.518c2.119,0,3.841,0.813,5.168,2.436c1.327,1.621,1.991,3.705,1.991,6.256v3.104
		c0,2.561-0.664,4.646-1.991,6.256c-1.327,1.612-3.05,2.418-5.168,2.418L24.681,195.929L24.681,195.929z M27.469,178.202v15h2.73
		c1.338,0,2.402-0.559,3.189-1.666c0.788-1.111,1.182-2.538,1.182-4.281v-3.135c0-1.727-0.394-3.145-1.182-4.252
		c-0.788-1.111-1.851-1.666-3.189-1.666H27.469z"/>
	<path fill="#414042" d="M43.439,195.929h-2.788V175.46h2.788V195.929z"/>
	<path fill="#414042" d="M56.506,186.721h-6.54v6.481h7.71v2.727H47.179V175.46h10.417v2.742h-7.629v5.775h6.54L56.506,186.721
		L56.506,186.721z M56.793,174.097l-0.023,0.084h-2.386l-2.054-2.178l-2.042,2.178h-2.386l-0.023-0.084l3.338-3.43h2.237
		L56.793,174.097z M55.439,167.167c0,0.654-0.174,1.232-0.522,1.732c-0.348,0.502-0.771,0.754-1.268,0.754
		c-0.398,0-0.84-0.16-1.325-0.484c-0.486-0.322-0.874-0.482-1.165-0.482c-0.214,0-0.401,0.127-0.562,0.381
		c-0.161,0.252-0.241,0.533-0.241,0.845l-1.09-0.365c0-0.646,0.17-1.229,0.511-1.743c0.34-0.515,0.763-0.771,1.268-0.771
		c0.313,0,0.732,0.157,1.256,0.479c0.523,0.319,0.931,0.479,1.222,0.479c0.207,0,0.396-0.132,0.568-0.396s0.258-0.554,0.258-0.871
		L55.439,167.167z"/>
	<path fill="#414042" d="M73.233,195.929h-2.788l-7.4-14.744l-0.069,0.025v14.719h-2.788V175.46h2.788l7.4,14.747l0.069-0.028
		V175.46h2.788V195.929z"/>
	<path fill="#414042" d="M82.595,195.929v-9.234h-1.767v-2.392h1.767v-8.843h5.518c2.119,0,3.841,0.813,5.168,2.436
		c1.327,1.621,1.991,3.705,1.991,6.256v3.104c0,2.561-0.664,4.646-1.991,6.256c-1.327,1.612-3.05,2.418-5.168,2.418L82.595,195.929
		L82.595,195.929z M88.342,186.691h-2.96v6.513h2.73c1.338,0,2.402-0.56,3.189-1.666c0.788-1.111,1.182-2.538,1.182-4.281v-3.135
		c0-1.728-0.394-3.146-1.182-4.252c-0.788-1.111-1.851-1.666-3.189-1.666h-2.73v6.101h2.96V186.691z"/>
	<path fill="#414042" d="M106.791,191.149h-5.92l-1.285,4.777h-2.879l5.828-20.469h2.65l5.759,20.469h-2.879L106.791,191.149z
		 M105.069,173.438h-2.317l-2.983-3.653l0.023-0.087h3.167L105.069,173.438z M101.639,188.296h4.394l-2.146-8.068h-0.069
		L101.639,188.296z"/>
	<path fill="#414042" d="M126.053,195.929h-2.788l-7.4-14.744l-0.069,0.025v14.719h-2.788V175.46h2.788l7.4,14.747l0.069-0.028
		V175.46h2.788V195.929z"/>
	<path fill="#414042" d="M147.621,189.236l0.023,0.084c0.031,2.063-0.516,3.729-1.64,4.998c-1.125,1.271-2.643,1.903-4.555,1.903
		c-1.943,0-3.519-0.804-4.727-2.409c-1.208-1.604-1.813-3.662-1.813-6.166v-3.895c0-2.493,0.597-4.548,1.79-6.164
		c1.193-1.616,2.75-2.426,4.669-2.426c1.966,0,3.513,0.611,4.641,1.842c1.128,1.229,1.677,2.91,1.646,5.047l-0.023,0.084h-2.696
		c0-1.365-0.302-2.415-0.906-3.142c-0.604-0.729-1.491-1.093-2.662-1.093c-1.132,0-2.029,0.554-2.69,1.651
		c-0.662,1.101-0.992,2.489-0.992,4.168v3.923c0,1.694,0.336,3.096,1.01,4.194c0.673,1.103,1.591,1.651,2.753,1.651
		c1.139,0,2.005-0.364,2.598-1.101c0.593-0.729,0.889-1.784,0.889-3.161h2.685V189.236z"/>
	<path fill="#414042" d="M163.086,175.46v13.48c0,2.274-0.61,4.063-1.83,5.351c-1.22,1.288-2.794,1.935-4.721,1.935
		c-1.897,0-3.442-0.646-4.635-1.935s-1.79-3.071-1.79-5.351v-13.48h2.788v13.48c0,1.451,0.333,2.574,0.998,3.364
		c0.665,0.794,1.545,1.188,2.639,1.188c1.132,0,2.042-0.396,2.729-1.188c0.688-0.792,1.033-1.913,1.033-3.364v-13.48H163.086z
		 M155.606,173.691l-0.081-2.056c0.574-0.034,0.981-0.126,1.222-0.267c0.241-0.143,0.361-0.371,0.361-0.688
		c0-0.354-0.153-0.612-0.459-0.771c-0.306-0.159-0.727-0.238-1.262-0.238l0.08-1.729c1.262,0,2.228,0.242,2.897,0.727
		c0.669,0.48,1.004,1.145,1.004,1.979c0,0.638-0.165,1.123-0.494,1.461s-0.738,0.545-1.228,0.619v0.971h-2.04V173.691
		L155.606,173.691z"/>
	<path fill="#414042" d="M174.789,191.149h-5.92l-1.285,4.777h-2.879l5.828-20.469h2.65l5.759,20.469h-2.879L174.789,191.149z
		 M169.637,188.296h4.394l-2.146-8.068h-0.069L169.637,188.296z"/>
	<path fill="#414042" d="M199.902,195.929h-2.788V187.2h-7.469v8.729h-2.788V175.46h2.788v8.998h7.469v-8.998h2.788V195.929z"/>
	<path fill="#414042" d="M216.537,187.536c0,2.502-0.641,4.574-1.921,6.221c-1.281,1.646-2.947,2.469-4.997,2.469
		c-1.996,0-3.622-0.822-4.876-2.469c-1.254-1.646-1.881-3.719-1.881-6.221v-3.686c0-2.492,0.625-4.563,1.876-6.216
		c1.251-1.647,2.877-2.475,4.881-2.475c2.042,0,3.706,0.823,4.991,2.475s1.927,3.724,1.927,6.216V187.536z M213.75,183.826
		c0-1.706-0.371-3.107-1.113-4.203c-0.742-1.101-1.748-1.646-3.018-1.646c-1.231,0-2.201,0.547-2.908,1.646
		c-0.708,1.096-1.061,2.497-1.061,4.203v3.711c0,1.725,0.355,3.137,1.067,4.235c0.711,1.104,1.679,1.65,2.902,1.65
		c1.277,0,2.285-0.549,3.023-1.646c0.738-1.1,1.107-2.512,1.107-4.244L213.75,183.826L213.75,183.826z M213.577,172.846v0.339
		h-2.237l-1.64-1.953l-1.629,1.953h-2.214v-0.365l3.029-3.373h1.641L213.577,172.846z M211.249,200.934h-3.098v-3.137h3.098V200.934
		z"/>
	<path fill="#414042" d="M222.514,195.929h-2.788V175.46h2.788V195.929z"/>
	<path fill="#414042" d="M234.893,193.202h7.825v2.727h-10.612V175.46h2.788L234.893,193.202L234.893,193.202z"/>
	<path fill="#414042" d="M248.098,195.929h-2.788V175.46h2.788V195.929z"/>
	<path fill="#414042" d="M261.166,186.721h-6.54v6.481h7.71v2.727h-10.498V175.46h10.417v2.742h-7.629v5.775h6.54V186.721z
		 M260.959,173.143v0.338h-2.237l-1.641-1.955l-1.629,1.955h-2.214v-0.367l3.029-3.373h1.641L260.959,173.143z"/>
	<path fill="#414042" d="M277.893,195.929h-2.788l-7.4-14.744l-0.069,0.025v14.719h-2.788V175.46h2.788l7.4,14.747l0.069-0.028
		V175.46h2.788V195.929z"/>
	<path fill="#414042" d="M300.298,195.929h-2.788V187.2h-7.469v8.729h-2.787V175.46h2.788v8.998h7.469v-8.998h2.788L300.298,195.929
		L300.298,195.929z"/>
	<path fill="#414042" d="M306.826,195.929h-2.788V175.46h2.788V195.929z"/>
	<path fill="#414042" d="M319.895,186.721h-6.541v6.481h7.711v2.727h-10.5V175.46h10.418v2.742h-7.629v5.775h6.541V186.721z
		 M319.688,173.143v0.338h-2.238l-1.641-1.955l-1.629,1.955h-2.214v-0.367l3.028-3.373h1.641L319.688,173.143z M317.357,200.666
		h-3.097v-3.138h3.097V200.666z"/>
	<path fill="#414042" d="M326.363,188.169v7.76h-2.787V175.46h6.402c1.842,0,3.281,0.584,4.33,1.751
		c1.043,1.167,1.563,2.701,1.563,4.604c0,1.92-0.521,3.461-1.563,4.617c-1.049,1.157-2.488,1.735-4.33,1.735L326.363,188.169
		L326.363,188.169z M326.363,185.428h3.615c1.026,0,1.809-0.337,2.323-1.013c0.521-0.676,0.78-1.531,0.78-2.572
		c0-1.04-0.266-1.904-0.78-2.601c-0.518-0.695-1.297-1.04-2.323-1.04h-3.615V185.428z"/>
	<path fill="#414042" d="M356.055,178.202h-5.162v17.727h-2.787v-17.727h-5.084v-2.742h13.033V178.202z"/>
	<path fill="#414042" d="M371.222,195.929h-2.788V187.2h-7.469v8.729h-2.787V175.46h2.787v8.998h7.469v-8.998h2.788V195.929z"/>
	<path fill="#414042" d="M383.635,191.149h-5.92l-1.285,4.777h-2.879l5.828-20.469h2.65l5.759,20.469h-2.88L383.635,191.149z
		 M378.484,188.296h4.394l-2.146-8.068h-0.068L378.484,188.296z"/>
	<path fill="#414042" d="M402.898,195.929h-2.789l-7.396-14.744l-0.063,0.025v14.719h-2.797V175.46h2.787l7.4,14.747l0.068-0.028
		V175.46h2.787v20.469H402.898L402.898,195.929z"/>
	<path fill="#414042" d="M419.452,195.929h-2.788V187.2h-7.469v8.729h-2.788V175.46h2.788v8.998h7.469v-8.998h2.788V195.929z"/>
	<path fill="#414042" d="M441.857,195.929h-2.783l-7.399-14.744l-0.069,0.025v14.719h-2.785V175.46h2.785l7.4,14.747l0.068-0.028
		V175.46h2.783V195.929z"/>
	<path fill="#414042" d="M448.386,195.929h-2.788V175.46h2.788V195.929z"/>
	<path fill="#414042" d="M461.453,186.721h-6.539v6.481h7.71v2.727h-10.498V175.46h10.418v2.742h-7.63v5.775h6.539V186.721z
		 M461.247,173.143v0.338h-2.237l-1.641-1.955l-1.629,1.955h-2.214v-0.367l3.023-3.373h1.646L461.247,173.143z"/>
	<path fill="#414042" d="M478.181,195.929h-2.788l-7.396-14.744l-0.069,0.025v14.719h-2.788V175.46h2.788l7.4,14.747l0.063-0.028
		V175.46h2.788L478.181,195.929L478.181,195.929z"/>
	<path fill="#414042" d="M492.911,190.376l0.299,1.488h0.068l0.282-1.463l3.992-14.941h2.977l-5.971,20.469h-2.646l-5.954-20.469
		h2.972L492.911,190.376z"/>
	<path fill="#414042" d="M505.474,195.929h-2.788V175.46h2.788V195.929z"/>
	<path fill="#414042" d="M518.541,186.721h-6.539v6.481h7.71v2.727h-10.498V175.46h10.418v2.742h-7.63v5.775h6.539V186.721z
		 M518.335,173.143v0.338h-2.237l-1.641-1.955l-1.629,1.955h-2.214v-0.367l3.023-3.373h1.646L518.335,173.143z M516.006,200.666
		h-3.098v-3.138h3.098V200.666z"/>
	<path fill="#414042" d="M533.892,178.202h-5.162v17.727h-2.788v-17.727h-5.078v-2.742h13.028V178.202z"/>
	<path fill="#414042" d="M554.909,195.929h-2.788l-7.399-14.744l-0.064,0.025v14.719h-2.788V175.46h2.788l7.396,14.747l0.068-0.028
		V175.46h2.788V195.929L554.909,195.929z"/>
	<path fill="#414042" d="M567.322,191.149h-5.92l-1.284,4.777h-2.88l5.828-20.469h2.646l5.759,20.469h-2.88L567.322,191.149z
		 M562.172,188.296h4.396l-2.146-8.068h-0.068L562.172,188.296z"/>
	<path fill="#414042" d="M581.996,191.205h0.063l4.83-15.745h3.562v20.469h-2.788v-14.703l-0.068-0.016l-4.601,14.719h-1.916
		l-4.686-15l-0.064,0.028v14.972h-2.788V175.46h3.66L581.996,191.205z"/>
</g>
<g>
	<path fill="#009CD7" d="M524.471,46.535c27.044,0.035,36.409,9.229,40.14,12.161l0.008-12.161h26.669v110.939H565.08V109.83
		c0.035-4.513-4.188-17.003-14.032-17.063v64.706h-26.577V46.535L524.471,46.535z M492.122,132.301h27.056v25.173h-52.223V46.535
		h52.223v25.16h-27.056v18.771h23.205v21.161h-23.205V132.301z M438.05,46.535h25.167v110.939H438.05V46.535z M366.416,46.535
		c27.039,0.035,36.415,9.229,40.13,12.161l0.021-12.161h26.669v110.939h-26.222V109.83c0.043-4.513-4.18-17.003-14.024-17.063
		v64.706h-26.574V46.535z M322.482,46.535h25.169v110.939h-25.169v-49.362h-13.184v49.362h-25.168V46.535h25.168v40.771h13.184
		V46.535z M211.405,46.535c27.039,0.035,36.403,9.229,40.125,12.161l0.015-12.161h26.675v110.939h-26.217V109.83
		c0.038-4.513-4.192-17.003-14.032-17.063v64.706h-26.567V46.535L211.405,46.535z M140.049,157.552h27.076v-13.537h13.137v13.537
		h27.078V46.461c-51.358,0.108-67.155,37.478-67.29,62.921V157.552z M180.262,86.378v34.547h-13.137v-8.953
		C167.125,103.623,172.984,86.384,180.262,86.378 M110.944,46.535h25.169v110.939h-25.169v-49.362H97.765v49.362H72.6V46.535h25.165
		v40.771h13.179V46.535z M12.152,46.535h56.851v21.592h-15.54v89.345H27.695V68.128H12.152V46.535z M487.066,41.702l5.739-5.745
		c0.717-0.713,2.151-0.713,2.864,0l5.743,5.745c0.715,0.712,1.427,1.426,0,2.86c-1.432,1.431-2.15,0.714-2.862,0l-4.311-4.314
		l-4.312,4.314c-0.714,0.714-1.437,1.431-2.862,0C485.643,43.129,486.352,42.415,487.066,41.702"/>
</g>
</svg>
