<svg id="Capa_1" enable-background="new 0 0 512.017 512.017" height="512" viewBox="0 0 512.017 512.017" width="512" xmlns="http://www.w3.org/2000/svg"><g><path d="m384.01 321c-52.362 0-95 42.627-95 95 0 28.486 12.387 54.715 33.506 72.99 37.467 32.437 93.385 30.579 128.759-5.406 17.886-18.194 27.735-42.196 27.735-67.584 0-52.383-42.616-95-95-95z"/><path d="m319.01 50v-35c0-8.284-6.716-15-15-15h-192c-8.284 0-15 6.716-15 15v35c0 8.284 6.716 15 15 15h192c8.285 0 15-6.716 15-15z"/><path d="m255.01 226v-28c0-8.284-6.716-15-15-15h-192c-8.284 0-15 6.716-15 15v28c0 8.284 6.716 15 15 15h192c8.285 0 15-6.716 15-15z"/><path d="m112.01 329h182.343c7.339-7.56 15.621-14.199 24.657-19.723v-23.277c0-8.284-6.716-15-15-15h-192c-8.284 0-15 6.716-15 15v28c0 8.284 6.716 15 15 15z"/><path d="m262.847 447h-150.837c-8.284 0-15 6.716-15 15v35c0 8.284 6.716 15 15 15h191.258c-19.664-16.882-33.954-39.365-40.421-65z"/><path d="m272.801 359h-160.791c-8.284 0-15 6.716-15 15v28c0 8.284 6.716 15 15 15h147.012c-.159-20.772 4.746-40.454 13.779-58z"/><path d="m48.01 153h192c8.284 0 15-6.716 15-15v-28c0-8.284-6.716-15-15-15h-192.003c-8.285 0-15.001 6.715-15 14.999.001 6.24.002 15.174.003 27.993 0 8.284 6.716 15.008 15 15.008z"/></g></svg>